<?xml version="1.0" standalone="no"?>
<!DOCTYPE svg PUBLIC "-//W3C//DTD SVG 20010904//EN"
 "http://www.w3.org/TR/2001/REC-SVG-20010904/DTD/svg10.dtd">
<svg version="1.0" xmlns="http://www.w3.org/2000/svg"
 width="512.000000pt" height="512.000000pt" viewBox="0 0 512.000000 512.000000"
 preserveAspectRatio="xMidYMid meet">

<g transform="translate(0.000000,512.000000) scale(0.100000,-0.100000)"
fill="#000000" stroke="none">
<path d="M2488 4787 c-63 -24 -90 -52 -178 -178 l-85 -123 -144 -42 c-185 -55
-237 -95 -262 -202 -18 -77 4 -133 108 -270 l96 -126 -7 -137 c-10 -190 9
-248 103 -314 38 -27 51 -30 114 -30 61 0 92 7 199 47 l128 47 128 -47 c107
-40 138 -47 199 -47 63 0 76 3 114 30 94 66 113 124 103 314 l-7 137 96 126
c104 137 126 193 108 270 -25 107 -78 148 -262 202 l-144 42 -47 70 c-112 163
-137 193 -179 214 -53 27 -133 35 -181 17z m165 -328 c42 -63 89 -125 105
-139 19 -17 74 -39 180 -69 83 -25 152 -49 152 -54 0 -4 -45 -67 -100 -139
l-100 -131 0 -179 c0 -168 -1 -180 -17 -173 -10 4 -84 30 -165 59 l-147 51
-148 -52 c-82 -28 -156 -54 -166 -58 -17 -7 -18 2 -17 151 1 88 1 169 1 180
-1 12 -46 81 -101 153 -55 71 -100 134 -100 138 0 4 68 28 151 52 83 25 162
54 176 64 13 10 47 53 75 96 87 130 120 172 132 168 6 -2 46 -55 89 -118z"/>
<path d="M972 4349 c-35 -17 -60 -45 -120 -131 l-77 -109 -85 -25 c-136 -40
-165 -52 -200 -87 -43 -41 -60 -84 -60 -147 0 -62 14 -90 102 -205 l69 -90 -6
-115 c-8 -155 13 -216 93 -271 60 -41 136 -38 268 10 l111 40 114 -40 c140
-50 204 -51 271 -3 70 49 83 87 85 249 l2 139 73 95 c105 139 118 214 54 311
-32 48 -70 69 -205 109 -58 17 -107 35 -110 39 -4 4 -34 48 -67 97 -34 50 -70
98 -81 107 -56 50 -159 62 -231 27z m267 -423 c14 -7 76 -25 136 -41 61 -15
111 -29 113 -30 2 -2 -27 -43 -65 -92 -114 -145 -106 -124 -98 -273 5 -87 4
-130 -3 -130 -6 0 -61 18 -122 40 -61 22 -122 40 -134 40 -12 0 -72 -20 -134
-45 -61 -25 -114 -45 -117 -45 -3 0 -5 64 -5 143 l0 142 -85 105 -85 105 62
18 c126 36 193 59 207 70 12 10 57 77 138 205 14 23 16 22 91 -88 41 -61 87
-117 101 -124z"/>
<path d="M3965 4351 c-46 -21 -67 -44 -145 -159 l-55 -82 -70 -21 c-187 -55
-217 -71 -254 -139 -28 -49 -33 -138 -11 -180 7 -14 44 -66 81 -116 l69 -90 0
-136 c0 -122 2 -139 23 -179 34 -63 93 -102 164 -107 48 -3 78 3 173 36 l114
40 110 -39 c165 -59 235 -52 310 31 49 54 59 100 51 234 l-7 111 71 92 c83
106 101 144 101 208 0 101 -65 170 -197 210 -154 45 -147 40 -226 155 -56 80
-83 109 -117 127 -53 28 -128 30 -185 4z m158 -299 c41 -59 81 -113 89 -119 7
-7 71 -27 140 -45 l127 -33 -80 -104 c-44 -57 -82 -115 -86 -129 -3 -14 -3
-80 1 -148 l6 -122 -92 33 c-51 18 -106 38 -121 44 -45 17 -65 14 -187 -34
-63 -25 -117 -45 -120 -45 -3 0 -4 61 -2 136 4 155 10 140 -101 272 -38 45
-68 84 -66 86 2 2 53 18 114 36 60 18 122 38 136 46 16 8 55 58 95 123 38 61
70 110 71 111 1 0 35 -48 76 -108z"/>
<path d="M2475 2981 c-204 -33 -364 -142 -472 -321 -39 -63 -74 -188 -80 -279
-13 -213 95 -435 267 -552 27 -19 50 -37 50 -41 0 -3 -15 -10 -32 -13 -43 -9
-165 -65 -212 -97 l-37 -25 -53 51 c-29 29 -79 69 -111 91 -63 41 -179 94
-208 95 -13 0 4 22 55 73 113 111 168 234 168 379 0 146 -46 261 -146 368
-213 225 -555 225 -768 0 -160 -170 -192 -409 -83 -613 35 -67 111 -155 151
-176 34 -19 33 -27 -6 -35 -57 -11 -192 -85 -262 -142 -118 -97 -210 -245
-246 -397 -16 -66 -20 -117 -20 -264 0 -162 2 -189 21 -240 26 -68 92 -138
164 -173 l50 -25 466 -3 467 -3 7 -47 c15 -102 86 -195 184 -241 l56 -26 715
0 715 0 56 26 c98 46 169 141 185 246 l6 42 467 3 466 3 57 28 c70 34 131 101
158 173 17 48 20 78 20 235 0 209 -13 282 -70 404 -48 103 -117 194 -199 262
-67 55 -201 128 -258 139 l-32 6 73 72 c111 110 166 234 166 378 0 146 -46
261 -146 368 -213 225 -555 225 -768 0 -160 -170 -192 -409 -83 -613 35 -67
111 -155 151 -176 28 -16 34 -31 12 -31 -61 0 -277 -128 -340 -201 l-32 -38
-39 26 c-48 32 -170 89 -212 98 -18 3 -33 10 -33 13 0 4 20 20 45 35 70 45
161 151 206 241 52 106 73 206 66 317 -14 229 -142 426 -347 533 -109 57 -263
85 -375 67z m259 -249 c111 -52 194 -145 231 -261 28 -86 18 -217 -22 -304
-78 -165 -267 -266 -444 -238 -139 23 -259 112 -321 238 -31 64 -33 74 -33
178 0 102 2 115 31 175 40 85 108 159 182 198 80 43 122 52 224 48 71 -3 98
-9 152 -34z m106 -1157 c217 -68 391 -248 445 -460 11 -44 15 -116 15 -288 l0
-229 -29 -29 -29 -29 -682 0 -682 0 -29 29 -29 29 0 224 c0 164 4 240 16 288
55 236 267 437 505 479 90 16 434 7 499 -14z"/>
</g>
</svg>
